<svg xmlns="http://www.w3.org/2000/svg" viewBox="0 0 24 30" x="0px" y="0px"><title>desktop, monitor, pc, computer, user interface</title><g data-name="Layer 2"><path d="M19,19H5a4,4,0,0,1-4-4V5A4,4,0,0,1,5,1H19a4,4,0,0,1,4,4V15A4,4,0,0,1,19,19ZM5,3A2,2,0,0,0,3,5V15a2,2,0,0,0,2,2H19a2,2,0,0,0,2-2V5a2,2,0,0,0-2-2Z"/><path d="M15,23H9V17h6Zm-4-2h2V19H11Z"/><rect x="6" y="21" width="12" height="2" rx="1"/><rect x="2" y="13" width="20" height="2"/><path d="M5,2H19a3,3,0,0,1,3,3v9a0,0,0,0,1,0,0H2a0,0,0,0,1,0,0V5A3,3,0,0,1,5,2Z"/></g><text x="0" y="39" fill="#000000" font-size="5px" font-weight="bold" font-family="'Helvetica Neue', Helvetica, Arial-Unicode, Arial, Sans-serif">Created by Phoenix Dungeon</text><text x="0" y="44" fill="#000000" font-size="5px" font-weight="bold" font-family="'Helvetica Neue', Helvetica, Arial-Unicode, Arial, Sans-serif">from the Noun Project</text></svg>